HIERARCHY
ROOT hip
{
	OFFSET 0.000000 0.000000 0.000000 
	CHANNELS 6 Xposition Yposition Zposition Xrotation Zrotation Yrotation
	JOINT abdomen
	{
		OFFSET 0.000000 3.402643 0.000000 
		CHANNELS 3 Xrotation Zrotation Yrotation
		JOINT chest
		{
			OFFSET 0.000000 8.438565 -0.680529 
			CHANNELS 3 Xrotation Zrotation Yrotation
			JOINT neck
			{
				OFFSET 0.000000 10.207942 -0.272212 
				CHANNELS 3 Xrotation Zrotation Yrotation
				JOINT head
				{
					OFFSET 0.000000 3.130431 0.000000 
					CHANNELS 3 Xrotation Zrotation Yrotation
					End Site
					{
						OFFSET 0.000000 3.130435 0.000000 
					}
				}
			}
			JOINT lCollar
			{
				OFFSET 3.470700 6.669187 -0.816635 
				CHANNELS 3 Yrotation Zrotation Xrotation
				JOINT lShldr
				{
					OFFSET 3.198488 0.000000 0.000000 
					CHANNELS 3 Zrotation Yrotation Xrotation
					JOINT lForeArm
					{
						OFFSET 10.139888 0.000000 0.000000 
						CHANNELS 3 Yrotation Zrotation Xrotation
						JOINT lHand
						{
							OFFSET 8.370511 0.000000 0.000000 
							CHANNELS 3 Zrotation Yrotation Xrotation
							End Site
							{
								OFFSET 4.083176 0.000000 0.000000 
							}
						}
					}
				}
			}
			JOINT rCollar
			{
				OFFSET -3.470700 6.669187 -0.816635 
				CHANNELS 3 Yrotation Zrotation Xrotation
				JOINT rShldr
				{
					OFFSET -3.198488 0.000000 0.000000 
					CHANNELS 3 Zrotation Yrotation Xrotation
					JOINT rForeArm
					{
						OFFSET -10.139888 0.000000 0.000000 
						CHANNELS 3 Yrotation Zrotation Xrotation
						JOINT rHand
						{
							OFFSET -8.370511 0.000000 0.000000 
							CHANNELS 3 Zrotation Yrotation Xrotation
							End Site
							{
								OFFSET -4.083176 0.000000 0.000000 
							}
						}
					}
				}
			}
		}
	}
	JOINT lThigh
	{
		OFFSET 5.308129 -1.633274 1.361059 
		CHANNELS 3 Xrotation Zrotation Yrotation
		JOINT lShin
		{
			OFFSET -2.041588 -20.007561 0.000000 
			CHANNELS 3 Xrotation Zrotation Yrotation
			JOINT lFoot
			{
				OFFSET 0.000000 -19.190928 -1.224953 
				CHANNELS 3 Xrotation Yrotation Zrotation
				End Site
				{
					OFFSET 0.000000 -2.449906 4.627600 
				}
			}
		}
	}
	JOINT rThigh
	{
		OFFSET -5.308129 -1.633274 1.361059 
		CHANNELS 3 Xrotation Zrotation Yrotation
		JOINT rShin
		{
			OFFSET 2.041588 -20.007561 0.000000 
			CHANNELS 3 Xrotation Zrotation Yrotation
			JOINT rFoot
			{
				OFFSET 0.000000 -19.190928 -1.224953 
				CHANNELS 3 Xrotation Yrotation Zrotation
				End Site
				{
					OFFSET 0.000000 -2.449906 4.627600 
				}
			}
		}
	}
}
MOTION
Frames: 11
Frame Time: 0.033333
-0.768824 50.831417 2.520782 -0.176860 0.117183 -0.527343 0.000000 0.000000 0.000000 -9.923853 -0.741685 -2.109578 13.922405 -1.650387 0.117139 9.111471 0.019531 0.419925 -3.521967 9.154817 6.304141 -31.109900 27.136358 -38.307140 -21.594982 13.289156 27.238932 -11.883073 4.467535 -7.192641 3.089181 -14.089146 8.026228 31.061819 -10.947439 -37.031918 11.689598 -12.394599 50.014702 12.980866 -6.282588 -7.838026 0.282416 4.187430 6.084708 8.172220 -2.646854 -4.138422 -5.566385 0.261652 -1.939634 0.613525 -6.908723 -15.999286 8.372711 1.070502 -0.675967 -5.036062 0.030343 -0.974752 
-0.793905 50.826214 2.419949 -0.284062 0.058587 -0.839843 0.000000 0.000000 0.000000 -9.435552 -0.536822 -1.875101 13.382188 -1.728504 0.214746 9.501275 -0.078122 0.498046 -3.521967 9.154817 6.304141 -32.046658 26.847578 -38.245049 -21.618715 13.265408 27.190094 -11.462100 4.981264 -7.316380 3.089181 -14.089146 8.026228 31.818859 -10.754777 -36.686516 11.571301 -12.332755 50.270866 14.331976 -6.413957 -7.800213 0.184764 4.319202 6.244266 8.434713 -2.705199 -4.011295 -5.626134 0.263293 -1.917837 0.458516 -6.863136 -15.966471 8.560129 1.080779 -0.442047 -5.014843 0.024452 -1.019707 
-0.827400 50.818169 2.310399 -0.605878 0.019527 -1.201172 0.000000 0.000000 0.000000 -8.876278 -0.400255 -1.494241 13.221349 -1.855436 0.341934 9.590036 0.019530 0.566410 -3.521967 9.154817 6.304141 -33.012882 26.419905 -38.400021 -21.599516 13.282099 27.389479 -13.642263 5.153467 -7.195837 3.089181 -14.089146 8.026228 32.917263 -10.530109 -36.576260 11.566587 -12.352064 50.245640 15.037428 -6.338959 -7.753918 0.311284 4.455530 6.456402 8.676620 -2.802366 -3.836676 -5.655989 0.273780 -1.924034 0.565976 -6.834715 -16.032993 8.671116 1.178938 -0.040853 -5.078164 0.014757 -1.162188 
-0.853101 50.805382 2.152497 -0.820585 0.009762 -1.601563 0.000000 0.000000 0.000000 -8.470490 -0.312441 -1.113318 13.551141 -1.904251 0.400494 9.279504 0.214833 0.576204 -3.521967 9.154817 6.304141 -34.328041 25.683023 -39.439850 -21.658394 13.523498 26.117990 -18.176205 6.177376 -7.159774 3.089181 -14.089146 8.026228 34.360428 -10.180008 -36.281189 11.630112 -12.360343 50.064594 14.749551 -6.368459 -7.760097 0.242920 4.551992 6.583055 8.978245 -2.919199 -3.521139 -5.644753 0.256976 -1.931318 0.351153 -6.885229 -16.076616 9.036088 1.225847 0.340850 -4.970942 0.042289 -1.203042 
-0.896772 50.787884 1.962186 -0.993391 -0.078078 -1.982433 0.000000 0.000000 0.000000 -7.888159 -0.185530 -0.761746 13.419143 -2.070231 0.507834 9.206360 0.761685 0.537192 -3.521967 9.154817 6.304141 -36.456409 24.585556 -41.397003 -21.772701 14.083913 23.520102 -20.881575 8.087694 -7.469084 3.089181 -14.089146 8.026228 36.522266 -9.756553 -36.469532 11.808291 -12.554246 49.584938 13.910781 -6.299855 -7.793166 0.009105 4.749857 6.760220 9.518909 -2.998316 -3.472479 -5.816646 0.246389 -1.766320 0.048488 -6.796524 -15.952648 9.427694 1.168285 0.619707 -4.980319 0.059071 -1.248975 
-0.943516 50.767536 1.742400 -1.284724 -0.107334 -2.314467 0.000000 0.000000 0.000000 -7.215798 -0.146481 -0.390649 13.230737 -1.767541 0.371218 9.079057 0.830050 0.468842 -3.521967 9.154817 6.304141 -39.635948 22.979992 -43.547558 -21.880852 14.720510 20.864592 -19.821886 9.295807 -7.802197 3.089181 -14.089146 8.026228 39.700375 -9.171178 -37.272583 12.070810 -12.916929 48.612854 12.970712 -6.127724 -7.813592 -0.156750 4.949856 7.013753 10.003767 -3.153879 -3.485034 -5.799692 0.252660 -1.699624 -0.206072 -6.809836 -15.973865 9.969207 1.198063 1.077098 -5.106134 0.080793 -1.335689 
-0.979522 50.730618 1.504914 -1.666812 -0.068289 -2.607432 0.000000 0.000000 0.000000 -6.074126 -0.136719 -0.039086 12.200322 -1.513657 0.253818 9.537597 0.908181 0.400495 -3.521967 9.154817 6.304141 -44.046993 21.195217 -44.876068 -21.965305 15.088171 18.513678 -15.683381 8.847879 -7.831065 3.089181 -14.089146 8.026228 43.619507 -8.599600 -37.191978 12.118049 -12.966513 45.765141 11.554413 -6.612822 -7.961115 -0.342104 5.047965 7.211432 10.727047 -3.310435 -3.388039 -5.822453 0.270744 -1.627852 -0.439930 -6.921276 -16.070515 10.598083 1.226893 1.568356 -5.258780 0.100841 -1.487032 
-1.013678 50.674789 1.236384 -2.066333 -0.078024 -2.919933 0.000000 0.000000 0.000000 -4.482772 -0.068358 0.292969 10.545767 -1.083984 0.058583 10.034045 0.898425 0.302850 -3.521967 9.154817 6.304141 -49.623596 19.020483 -45.359489 -22.058283 15.241151 18.603014 -10.070078 7.756758 -7.837575 3.089181 -14.089146 8.026228 48.473248 -7.775273 -36.994446 12.003145 -13.007793 42.434906 9.333306 -6.856361 -8.100652 -0.644282 5.257679 7.527268 11.675128 -3.517102 -3.468508 -5.913913 0.218491 -1.416734 -0.800942 -6.951816 -16.033638 11.394105 1.149316 1.795923 -5.492346 0.105925 -1.538972 
-1.035531 50.609966 0.922110 -2.385055 -0.136512 -3.154311 0.000000 0.000000 0.000000 -2.782817 0.039061 0.566413 9.465786 -0.585930 -0.283288 10.352961 1.171874 0.068545 -3.521967 9.154817 6.304141 -56.021572 16.254545 -44.784004 -22.107407 15.117205 19.843716 -5.631198 7.338412 -7.959206 3.089181 -14.089146 8.026228 54.052166 -6.308695 -37.422066 11.815804 -13.411866 39.300011 7.763063 -6.171584 -8.075717 -1.191276 5.581669 7.960647 12.863648 -3.819560 -3.792922 -5.986668 0.192939 -1.193745 -1.298923 -6.941120 -15.984376 12.277395 1.051273 1.761652 -5.630731 0.084267 -1.463877 
-1.034667 50.544659 0.596318 -2.817220 -0.087746 -3.291027 0.000000 0.000000 0.000000 0.392622 0.156237 0.732446 7.028151 -0.869115 -0.439551 11.327714 1.865207 -0.312652 -3.521967 9.154817 6.304141 -62.535072 13.415713 -41.626972 -22.020836 14.076961 20.268084 -4.455739 7.240328 -8.015331 3.089181 -14.089146 8.026228 59.548901 -4.255511 -37.017185 11.498153 -13.524239 35.965618 7.833287 -5.976838 -8.051978 -1.619730 5.801866 8.461843 14.019238 -4.191762 -4.235164 -6.099022 0.127641 -0.817770 -1.660471 -7.112978 -16.033871 13.103980 0.995336 1.795394 -5.830296 0.094655 -1.374950 
-1.002863 50.457584 0.199518 -3.172131 -0.029248 -3.320317 0.000000 0.000000 0.000000 4.643346 0.351531 0.761764 4.453346 -0.585852 -0.976711 12.070569 2.128708 -0.781436 -3.521967 9.154817 6.304141 -68.086082 10.360223 -35.038094 -21.565014 12.168326 22.467388 -8.301630 6.037627 -7.666282 3.089181 -14.089146 8.026228 64.576004 -1.545246 -35.247330 11.337550 -13.317349 35.059391 8.035017 -6.304401 -8.087204 -2.411772 6.042511 8.918453 15.521449 -4.543255 -4.894857 -6.062949 0.119207 -0.544311 -2.246348 -7.302247 -16.112362 14.061819 0.907553 1.743517 -6.029373 0.073652 -1.225108 
